<?xml version="1.0" encoding="iso-8859-1"?>
<!-- Generator: Adobe Illustrator 18.0.0, SVG Export Plug-In . SVG Version: 6.00 Build 0)  -->
<!DOCTYPE svg PUBLIC "-//W3C//DTD SVG 1.1//EN" "http://www.w3.org/Graphics/SVG/1.1/DTD/svg11.dtd">
<svg version="1.1" id="Capa_1" xmlns="http://www.w3.org/2000/svg" xmlns:xlink="http://www.w3.org/1999/xlink" x="0px" y="0px"
	 viewBox="0 0 297 297" style="enable-background:new 0 0 297 297;" xml:space="preserve">
<g>
	<path d="M250.793,276.032h36.289c5.468,0,9.918-4.45,9.918-9.918v-34.37C272.808,233.203,253.246,252.117,250.793,276.032z"/>
	<path d="M0,140.426v76.613c32.29,1.498,58.403,26.977,60.928,58.993h175.143c2.526-32.015,28.639-57.495,60.928-58.993v-76.613
		c-32.29-1.498-58.403-26.978-60.928-58.993H60.928C58.403,113.448,32.29,138.928,0,140.426z M92.432,227.208
		c-10.322,0-18.689-8.368-18.689-18.689s8.367-18.689,18.689-18.689s18.689,8.367,18.689,18.689S102.754,227.208,92.432,227.208z
		 M204.568,115.072c10.322,0,18.689,8.367,18.689,18.689c0,10.322-8.367,18.689-18.689,18.689s-18.689-8.367-18.689-18.689
		C185.879,123.44,194.246,115.072,204.568,115.072z M186.1,158.221l25.995,23.168l-17.75,19.9l-25.995-23.168L186.1,158.221z
		 M120.525,135.337l-41.724,25.417l-13.876-22.777l41.724-25.417L120.525,135.337z"/>
	<path d="M250.793,81.433c2.454,23.915,22.014,42.829,46.207,44.288v-34.37c0-5.468-4.45-9.918-9.918-9.918H250.793z"/>
	<path d="M9.917,81.433C4.449,81.433,0,85.883,0,91.351v34.37c24.193-1.459,43.754-20.373,46.207-44.288H9.917z"/>
	<path d="M107.624,66.945V51.279c0-5.302,4.313-9.615,9.615-9.615h62.522c5.303,0,9.616,4.313,9.616,9.615v15.666h20.697V51.279
		c0-16.714-13.598-30.312-30.313-30.312h-62.522c-16.714,0-30.312,13.597-30.312,30.312v15.666H107.624z"/>
	<path d="M9.917,276.032h36.29C43.754,252.117,24.192,233.203,0,231.744v34.37C0,271.583,4.449,276.032,9.917,276.032z"/>
</g>
<g>
</g>
<g>
</g>
<g>
</g>
<g>
</g>
<g>
</g>
<g>
</g>
<g>
</g>
<g>
</g>
<g>
</g>
<g>
</g>
<g>
</g>
<g>
</g>
<g>
</g>
<g>
</g>
<g>
</g>
</svg>
